<svg focusable="false" class="icon icon--nav-triangle-left " viewBox="0 0 9 20" role="presentation" xmlns="http://www.w3.org/2000/svg">
      <g fill="none">
        <path d="M9 19.52891062c-.26871321-.2694725-.56867841-.57077721-.89986354-.90388257-1.7387876-1.74886921-4.33675081-4.37290921-7.79359758-7.87182755-.4095171-.4145057-.40860098-1.0844277.00205122-1.4977971L9 .5064844v19.02242622z" fill="#ffffff"></path>
        <path d="M9 20.00922471c-1.38150874-1.39809558-4.19662696-4.27584397-8.4453546-8.63324516-.7409708-.75993175-.7393145-1.98812015.0037073-2.74596565L9 .0199506v1.3748787L1.2323455 9.3174532c-.3715101.3789219-.3723389.9930172-.0018557 1.3729808 3.1273507 3.20734177 5.4776841 5.6127118 7.05073579 7.21584193.26103645.26602774.50063431.50992886.71877441.73168421v1.37126457z" fill="#e1e3e4"></path>
      </g>
    </svg>