<svg focusable="false" class="icon icon--linkedin " role="presentation" viewBox="0 0 30 30" xmlns="http://www.w3.org/2000/svg">
      <path d="M15 30C6.71572875 30 0 23.2842712 0 15 0 6.71572875 6.71572875 0 15 0c8.2842712 0 15 6.71572875 15 15 0 8.2842712-6.7157288 15-15 15zM10.2456033 7.5c-.92709386 0-1.67417473.75112475-1.67417473 1.67662742 0 .92604418.74708087 1.67716898 1.67417473 1.67716898.9233098 0 1.6730935-.7511248 1.6730935-1.67716898C11.9186968 8.25112475 11.1689131 7.5 10.2456033 7.5zM8.80063428 21.4285714h2.88885682v-9.3037658H8.80063428v9.3037658zm4.69979822-9.3037658v9.3037658h2.8829104v-4.6015191c0-1.2141468.2292058-2.3898439 1.7309356-2.3898439 1.4811878 0 1.5001081 1.3879832 1.5001081 2.4667435v4.5246195H22.5V16.326122c0-2.5057349-.5400389-4.4320151-3.4618711-4.4320151-1.4044256 0-2.3466556.7711619-2.7315482 1.502791h-.0394623v-1.2720923h-2.7666859z" fill="currentColor" fill-rule="evenodd"></path>
    </svg>