<svg focusable="false" class="icon icon--search-loader " viewBox="0 0 64 64" role="presentation" xmlns="http://www.w3.org/2000/svg">
      <path opacity=".4" d="M23.8589104 1.05290547C40.92335108-3.43614731 58.45816642 6.79494359 62.94709453 23.8589104c4.48905278 17.06444068-5.74156424 34.59913135-22.80600493 39.08818413S5.54195825 57.2055303 1.05290547 40.1410896C-3.43602265 23.0771228 6.7944697 5.54195825 23.8589104 1.05290547zM38.6146353 57.1445143c13.8647142-3.64731754 22.17719655-17.89443541 18.529879-31.75914961-3.64743965-13.86517841-17.8944354-22.17719655-31.7591496-18.529879S3.20804604 24.7494569 6.8554857 38.6146353c3.64731753 13.8647142 17.8944354 22.17719655 31.7591496 18.529879z"></path>
      <path d="M1.05290547 40.1410896l5.80258022-1.5264543c3.64731754 13.8647142 17.89443541 22.17719655 31.75914961 18.529879l1.5264543 5.80258023C23.07664892 67.43614731 5.54195825 57.2055303 1.05290547 40.1410896z"></path>
    </svg>