<svg focusable="false" class="icon icon--nav-triangle " viewBox="0 0 20 9" role="presentation" xmlns="http://www.w3.org/2000/svg">
      <g fill="none" fill-rule="evenodd">
        <path d="M.47108938 9c.2694725-.26871321.57077721-.56867841.90388257-.89986354C3.12384116 6.36134886 5.74788116 3.76338565 9.2467995.30653888c.4145057-.4095171 1.0844277-.40860098 1.4977971.00205122L19.4935156 9H.47108938z" fill="#ffffff"></path>
        <path d="M-.00922471 9C1.38887087 7.61849126 4.26661926 4.80337304 8.62402045.5546454c.75993175-.7409708 1.98812015-.7393145 2.74596565.0037073L19.9800494 9h-1.3748787l-7.9226239-7.7676545c-.3789219-.3715101-.9930172-.3723389-1.3729808-.0018557-3.20734177 3.1273507-5.6127118 5.4776841-7.21584193 7.05073579C1.82769633 8.54226204 1.58379521 8.7818599 1.36203986 9H-.00922471z" fill="#e1e3e4"></path>
      </g>
    </svg>